<mxfile host="Electron" agent="Mozilla/5.0 (Macintosh; Intel Mac OS X 10_15_7) AppleWebKit/537.36 (KHTML, like Gecko) draw.io/27.0.9 Chrome/134.0.6998.205 Electron/35.4.0 Safari/537.36" version="27.0.9">
  <diagram id="Ht1M8jgEwFfnCIfOTk4-" name="Page-1">
    <mxGraphModel dx="1912" dy="1108" grid="1" gridSize="10" guides="1" tooltips="1" connect="1" arrows="1" fold="1" page="1" pageScale="1" pageWidth="1169" pageHeight="827" math="0" shadow="0">
      <root>
        <mxCell id="0" />
        <mxCell id="1" parent="0" />
        <mxCell id="UEzPUAAOIrF-is8g5C7q-74" value="AWS Cloud" style="points=[[0,0],[0.25,0],[0.5,0],[0.75,0],[1,0],[1,0.25],[1,0.5],[1,0.75],[1,1],[0.75,1],[0.5,1],[0.25,1],[0,1],[0,0.75],[0,0.5],[0,0.25]];outlineConnect=0;gradientColor=none;html=1;whiteSpace=wrap;fontSize=12;fontStyle=0;shape=mxgraph.aws4.group;grIcon=mxgraph.aws4.group_aws_cloud_alt;strokeColor=#FFB570;fillColor=none;verticalAlign=top;align=left;spacingLeft=30;fontColor=#232F3E;dashed=0;labelBackgroundColor=#ffffff;container=1;pointerEvents=0;collapsible=0;recursiveResize=0;" parent="1" vertex="1">
          <mxGeometry x="470" y="40" width="690" height="640" as="geometry" />
        </mxCell>
        <mxCell id="2bYnyqqoTtq-98IhN9Yl-4" value="" style="rounded=1;whiteSpace=wrap;html=1;strokeColor=#FFB570;" vertex="1" parent="UEzPUAAOIrF-is8g5C7q-74">
          <mxGeometry x="14.5" y="37" width="661" height="566" as="geometry" />
        </mxCell>
        <mxCell id="2bYnyqqoTtq-98IhN9Yl-2" value="sdm-hwrk-vpb" style="outlineConnect=0;dashed=0;verticalLabelPosition=bottom;verticalAlign=top;align=center;html=1;shape=mxgraph.aws3.vpc;fillColor=#F58536;gradientColor=none;" vertex="1" parent="UEzPUAAOIrF-is8g5C7q-74">
          <mxGeometry x="293.5" width="68.25" height="60" as="geometry" />
        </mxCell>
        <mxCell id="2bYnyqqoTtq-98IhN9Yl-5" value="public_subnet" style="rounded=1;whiteSpace=wrap;html=1;verticalAlign=top;strokeColor=#FFB570;" vertex="1" parent="UEzPUAAOIrF-is8g5C7q-74">
          <mxGeometry x="210" y="92" width="151.75" height="470" as="geometry" />
        </mxCell>
        <mxCell id="2bYnyqqoTtq-98IhN9Yl-12" style="edgeStyle=orthogonalEdgeStyle;rounded=0;orthogonalLoop=1;jettySize=auto;html=1;strokeColor=#FFB570;exitX=0;exitY=0.5;exitDx=0;exitDy=0;" edge="1" parent="UEzPUAAOIrF-is8g5C7q-74" source="2bYnyqqoTtq-98IhN9Yl-8" target="2bYnyqqoTtq-98IhN9Yl-9">
          <mxGeometry relative="1" as="geometry">
            <mxPoint x="361.75" y="385.02857142857147" as="sourcePoint" />
            <Array as="points">
              <mxPoint x="380" y="335" />
              <mxPoint x="380" y="496" />
            </Array>
          </mxGeometry>
        </mxCell>
        <mxCell id="2bYnyqqoTtq-98IhN9Yl-53" value="default&lt;div&gt;route&lt;/div&gt;" style="edgeLabel;html=1;align=center;verticalAlign=middle;resizable=0;points=[];" vertex="1" connectable="0" parent="2bYnyqqoTtq-98IhN9Yl-12">
          <mxGeometry x="-0.855" relative="1" as="geometry">
            <mxPoint as="offset" />
          </mxGeometry>
        </mxCell>
        <mxCell id="2bYnyqqoTtq-98IhN9Yl-8" value="private_subnet" style="rounded=1;whiteSpace=wrap;html=1;verticalAlign=top;strokeColor=#FFB570;" vertex="1" parent="UEzPUAAOIrF-is8g5C7q-74">
          <mxGeometry x="450" y="100" width="180" height="470" as="geometry" />
        </mxCell>
        <mxCell id="2bYnyqqoTtq-98IhN9Yl-6" value="Internet Gateway" style="outlineConnect=0;dashed=0;verticalLabelPosition=bottom;verticalAlign=top;align=center;html=1;shape=mxgraph.aws3.internet_gateway;fillColor=#F58534;gradientColor=none;" vertex="1" parent="UEzPUAAOIrF-is8g5C7q-74">
          <mxGeometry x="46" y="291" width="69" height="72" as="geometry" />
        </mxCell>
        <mxCell id="2bYnyqqoTtq-98IhN9Yl-9" value="NAT Gateway" style="outlineConnect=0;dashed=0;verticalLabelPosition=bottom;verticalAlign=top;align=center;html=1;shape=mxgraph.aws3.vpc_nat_gateway;fillColor=#F58534;gradientColor=none;" vertex="1" parent="UEzPUAAOIrF-is8g5C7q-74">
          <mxGeometry x="170" y="460" width="69" height="72" as="geometry" />
        </mxCell>
        <mxCell id="2bYnyqqoTtq-98IhN9Yl-10" style="edgeStyle=orthogonalEdgeStyle;rounded=0;orthogonalLoop=1;jettySize=auto;html=1;entryX=0.5;entryY=1;entryDx=0;entryDy=0;entryPerimeter=0;strokeColor=#FFB570;" edge="1" parent="UEzPUAAOIrF-is8g5C7q-74" source="2bYnyqqoTtq-98IhN9Yl-56" target="2bYnyqqoTtq-98IhN9Yl-6">
          <mxGeometry relative="1" as="geometry">
            <mxPoint x="60" y="460" as="sourcePoint" />
            <Array as="points" />
          </mxGeometry>
        </mxCell>
        <mxCell id="2bYnyqqoTtq-98IhN9Yl-14" value="default&lt;div&gt;route&lt;/div&gt;" style="edgeStyle=orthogonalEdgeStyle;rounded=0;orthogonalLoop=1;jettySize=auto;html=1;startArrow=classic;startFill=1;strokeColor=#FFB570;" edge="1" parent="UEzPUAAOIrF-is8g5C7q-74" source="2bYnyqqoTtq-98IhN9Yl-5" target="2bYnyqqoTtq-98IhN9Yl-6">
          <mxGeometry relative="1" as="geometry" />
        </mxCell>
        <mxCell id="2bYnyqqoTtq-98IhN9Yl-22" style="edgeStyle=orthogonalEdgeStyle;rounded=0;orthogonalLoop=1;jettySize=auto;html=1;startArrow=classic;startFill=1;" edge="1" parent="UEzPUAAOIrF-is8g5C7q-74" source="2bYnyqqoTtq-98IhN9Yl-23" target="2bYnyqqoTtq-98IhN9Yl-6">
          <mxGeometry relative="1" as="geometry">
            <Array as="points">
              <mxPoint x="80" y="217" />
              <mxPoint x="80" y="217" />
            </Array>
          </mxGeometry>
        </mxCell>
        <mxCell id="2bYnyqqoTtq-98IhN9Yl-15" value="sdm-hwrk-gateway" style="outlineConnect=0;dashed=0;verticalLabelPosition=bottom;verticalAlign=top;align=center;html=1;shape=mxgraph.aws3.instance;fillColor=#F58534;gradientColor=none;" vertex="1" parent="UEzPUAAOIrF-is8g5C7q-74">
          <mxGeometry x="221.75" y="251" width="108.25" height="105" as="geometry" />
        </mxCell>
        <mxCell id="2bYnyqqoTtq-98IhN9Yl-21" value="sdm-hwrk-internal-instance" style="outlineConnect=0;dashed=0;verticalLabelPosition=bottom;verticalAlign=top;align=center;html=1;shape=mxgraph.aws3.instance;fillColor=#F58534;gradientColor=none;" vertex="1" parent="UEzPUAAOIrF-is8g5C7q-74">
          <mxGeometry x="509.25" y="272" width="60" height="63" as="geometry" />
        </mxCell>
        <mxCell id="2bYnyqqoTtq-98IhN9Yl-24" value="" style="edgeStyle=orthogonalEdgeStyle;rounded=0;orthogonalLoop=1;jettySize=auto;html=1;startArrow=classic;startFill=1;" edge="1" parent="UEzPUAAOIrF-is8g5C7q-74" source="2bYnyqqoTtq-98IhN9Yl-37" target="2bYnyqqoTtq-98IhN9Yl-23">
          <mxGeometry relative="1" as="geometry">
            <mxPoint x="692" y="343" as="sourcePoint" />
            <mxPoint x="579" y="276" as="targetPoint" />
            <Array as="points">
              <mxPoint x="190" y="304" />
              <mxPoint x="190" y="200" />
            </Array>
          </mxGeometry>
        </mxCell>
        <mxCell id="2bYnyqqoTtq-98IhN9Yl-58" value="sdm&lt;div&gt;tunnel&lt;/div&gt;" style="edgeLabel;html=1;align=center;verticalAlign=middle;resizable=0;points=[];" vertex="1" connectable="0" parent="2bYnyqqoTtq-98IhN9Yl-24">
          <mxGeometry x="-0.0634" y="1" relative="1" as="geometry">
            <mxPoint as="offset" />
          </mxGeometry>
        </mxCell>
        <mxCell id="2bYnyqqoTtq-98IhN9Yl-23" value="EIP" style="ellipse;whiteSpace=wrap;html=1;aspect=fixed;" vertex="1" parent="UEzPUAAOIrF-is8g5C7q-74">
          <mxGeometry x="60.5" y="180" width="40" height="40" as="geometry" />
        </mxCell>
        <mxCell id="2bYnyqqoTtq-98IhN9Yl-25" style="edgeStyle=orthogonalEdgeStyle;rounded=0;orthogonalLoop=1;jettySize=auto;html=1;entryX=0;entryY=0.5;entryDx=0;entryDy=0;entryPerimeter=0;exitX=1;exitY=0.5;exitDx=0;exitDy=0;exitPerimeter=0;" edge="1" parent="UEzPUAAOIrF-is8g5C7q-74" source="2bYnyqqoTtq-98IhN9Yl-37" target="2bYnyqqoTtq-98IhN9Yl-21">
          <mxGeometry relative="1" as="geometry" />
        </mxCell>
        <mxCell id="2bYnyqqoTtq-98IhN9Yl-26" value="SSH" style="edgeLabel;html=1;align=center;verticalAlign=middle;resizable=0;points=[];" vertex="1" connectable="0" parent="2bYnyqqoTtq-98IhN9Yl-25">
          <mxGeometry x="-0.0521" y="-2" relative="1" as="geometry">
            <mxPoint as="offset" />
          </mxGeometry>
        </mxCell>
        <mxCell id="2bYnyqqoTtq-98IhN9Yl-37" value="sdm" style="outlineConnect=0;dashed=0;verticalLabelPosition=bottom;verticalAlign=top;align=center;html=1;shape=mxgraph.aws3.ec2_compute_container;fillColor=#F58534;gradientColor=none;" vertex="1" parent="UEzPUAAOIrF-is8g5C7q-74">
          <mxGeometry x="245.88" y="286.25" width="60" height="34.5" as="geometry" />
        </mxCell>
        <mxCell id="2bYnyqqoTtq-98IhN9Yl-57" value="" style="edgeStyle=orthogonalEdgeStyle;rounded=0;orthogonalLoop=1;jettySize=auto;html=1;entryX=0.5;entryY=1;entryDx=0;entryDy=0;entryPerimeter=0;strokeColor=#FFB570;" edge="1" parent="UEzPUAAOIrF-is8g5C7q-74" source="2bYnyqqoTtq-98IhN9Yl-9" target="2bYnyqqoTtq-98IhN9Yl-56">
          <mxGeometry relative="1" as="geometry">
            <mxPoint x="640" y="536" as="sourcePoint" />
            <mxPoint x="551" y="403" as="targetPoint" />
            <Array as="points">
              <mxPoint x="81" y="496" />
            </Array>
          </mxGeometry>
        </mxCell>
        <mxCell id="2bYnyqqoTtq-98IhN9Yl-56" value="EIP" style="ellipse;whiteSpace=wrap;html=1;aspect=fixed;" vertex="1" parent="UEzPUAAOIrF-is8g5C7q-74">
          <mxGeometry x="60.5" y="475" width="40" height="40" as="geometry" />
        </mxCell>
        <mxCell id="2bYnyqqoTtq-98IhN9Yl-28" value="user" style="shape=umlActor;verticalLabelPosition=bottom;verticalAlign=top;html=1;outlineConnect=0;" vertex="1" parent="1">
          <mxGeometry x="130" y="505" width="30" height="60" as="geometry" />
        </mxCell>
        <mxCell id="2bYnyqqoTtq-98IhN9Yl-34" value="StrongDM Control Plain" style="aspect=fixed;sketch=0;html=1;dashed=0;whitespace=wrap;verticalLabelPosition=bottom;verticalAlign=top;fillColor=#2875E2;strokeColor=#ffffff;points=[[0.005,0.63,0],[0.1,0.2,0],[0.9,0.2,0],[0.5,0,0],[0.995,0.63,0],[0.72,0.99,0],[0.5,1,0],[0.28,0.99,0]];shape=mxgraph.kubernetes.icon2;prIcon=control_plane" vertex="1" parent="1">
          <mxGeometry x="186.04000000000002" y="70" width="197.92" height="190" as="geometry" />
        </mxCell>
        <mxCell id="2bYnyqqoTtq-98IhN9Yl-35" style="edgeStyle=orthogonalEdgeStyle;rounded=0;orthogonalLoop=1;jettySize=auto;html=1;entryX=0.145;entryY=0.145;entryDx=0;entryDy=0;entryPerimeter=0;startArrow=classic;startFill=1;" edge="1" parent="1" source="2bYnyqqoTtq-98IhN9Yl-34" target="2bYnyqqoTtq-98IhN9Yl-6">
          <mxGeometry relative="1" as="geometry">
            <Array as="points">
              <mxPoint x="440" y="175" />
              <mxPoint x="440" y="341" />
              <mxPoint x="520" y="341" />
            </Array>
          </mxGeometry>
        </mxCell>
        <mxCell id="2bYnyqqoTtq-98IhN9Yl-36" value="sdm&lt;div&gt;tunnel&lt;/div&gt;&lt;div&gt;(control)&lt;/div&gt;" style="edgeLabel;html=1;align=center;verticalAlign=middle;resizable=0;points=[];" vertex="1" connectable="0" parent="2bYnyqqoTtq-98IhN9Yl-35">
          <mxGeometry x="0.0319" relative="1" as="geometry">
            <mxPoint as="offset" />
          </mxGeometry>
        </mxCell>
        <mxCell id="2bYnyqqoTtq-98IhN9Yl-39" value="user workstation" style="rounded=1;whiteSpace=wrap;html=1;verticalAlign=top;" vertex="1" parent="1">
          <mxGeometry x="190" y="470" width="150" height="130" as="geometry" />
        </mxCell>
        <mxCell id="2bYnyqqoTtq-98IhN9Yl-41" style="edgeStyle=orthogonalEdgeStyle;rounded=0;orthogonalLoop=1;jettySize=auto;html=1;" edge="1" parent="1" source="2bYnyqqoTtq-98IhN9Yl-40" target="2bYnyqqoTtq-98IhN9Yl-34">
          <mxGeometry relative="1" as="geometry" />
        </mxCell>
        <mxCell id="2bYnyqqoTtq-98IhN9Yl-44" value="sdm tunnel&lt;div&gt;(control)&lt;/div&gt;" style="edgeLabel;html=1;align=center;verticalAlign=middle;resizable=0;points=[];" vertex="1" connectable="0" parent="2bYnyqqoTtq-98IhN9Yl-41">
          <mxGeometry x="-0.0065" y="3" relative="1" as="geometry">
            <mxPoint as="offset" />
          </mxGeometry>
        </mxCell>
        <mxCell id="2bYnyqqoTtq-98IhN9Yl-42" style="edgeStyle=orthogonalEdgeStyle;rounded=0;orthogonalLoop=1;jettySize=auto;html=1;entryX=0.145;entryY=0.855;entryDx=0;entryDy=0;entryPerimeter=0;" edge="1" parent="1" source="2bYnyqqoTtq-98IhN9Yl-40" target="2bYnyqqoTtq-98IhN9Yl-6">
          <mxGeometry relative="1" as="geometry">
            <mxPoint x="440" y="370" as="targetPoint" />
            <Array as="points">
              <mxPoint x="440" y="517" />
              <mxPoint x="440" y="393" />
              <mxPoint x="520" y="393" />
            </Array>
          </mxGeometry>
        </mxCell>
        <mxCell id="2bYnyqqoTtq-98IhN9Yl-43" value="sdm&lt;div&gt;tunnel&lt;/div&gt;&lt;div&gt;(w/ssh)&lt;/div&gt;" style="edgeLabel;html=1;align=center;verticalAlign=middle;resizable=0;points=[];" vertex="1" connectable="0" parent="2bYnyqqoTtq-98IhN9Yl-42">
          <mxGeometry x="0.0399" y="-2" relative="1" as="geometry">
            <mxPoint as="offset" />
          </mxGeometry>
        </mxCell>
        <mxCell id="2bYnyqqoTtq-98IhN9Yl-40" value="sdm" style="outlineConnect=0;dashed=0;verticalLabelPosition=bottom;verticalAlign=top;align=center;html=1;shape=mxgraph.aws3.ec2_compute_container;fillColor=#F58534;gradientColor=none;" vertex="1" parent="1">
          <mxGeometry x="255" y="500" width="60" height="34.5" as="geometry" />
        </mxCell>
        <mxCell id="2bYnyqqoTtq-98IhN9Yl-48" style="edgeStyle=orthogonalEdgeStyle;rounded=0;orthogonalLoop=1;jettySize=auto;html=1;exitX=0.5;exitY=1;exitDx=0;exitDy=0;" edge="1" parent="1" source="UEzPUAAOIrF-is8g5C7q-74" target="UEzPUAAOIrF-is8g5C7q-74">
          <mxGeometry relative="1" as="geometry" />
        </mxCell>
        <mxCell id="2bYnyqqoTtq-98IhN9Yl-49" value="ssh client" style="ellipse;whiteSpace=wrap;html=1;fillColor=#7EA6E0;" vertex="1" parent="1">
          <mxGeometry x="200" y="560" width="60" height="30" as="geometry" />
        </mxCell>
        <mxCell id="2bYnyqqoTtq-98IhN9Yl-51" style="edgeStyle=orthogonalEdgeStyle;rounded=0;orthogonalLoop=1;jettySize=auto;html=1;entryX=0;entryY=0.5;entryDx=0;entryDy=0;entryPerimeter=0;" edge="1" parent="1" source="2bYnyqqoTtq-98IhN9Yl-49" target="2bYnyqqoTtq-98IhN9Yl-40">
          <mxGeometry relative="1" as="geometry" />
        </mxCell>
      </root>
    </mxGraphModel>
  </diagram>
</mxfile>
